<?xml version="1.0" encoding="utf-8"?>
<!-- Generator: Adobe Illustrator 24.3.0, SVG Export Plug-In . SVG Version: 6.00 Build 0)  -->
<svg version="1.1" id="Layer_1" xmlns="http://www.w3.org/2000/svg" xmlns:xlink="http://www.w3.org/1999/xlink" x="0px" y="0px"
	 viewBox="0 0 208 36" style="enable-background:new 0 0 208 36;" xml:space="preserve">
<style type="text/css">
	.st0{fill-rule:evenodd;clip-rule:evenodd;fill:#423629;}
	.st1{fill-rule:evenodd;clip-rule:evenodd;fill:#574C41;}
	.st2{fill-rule:evenodd;clip-rule:evenodd;fill:#6B6256;}
	.st3{fill-rule:evenodd;clip-rule:evenodd;fill:#B3AAA0;}
	.st4{fill-rule:evenodd;clip-rule:evenodd;fill:#8C8479;}
	.st5{fill-rule:evenodd;clip-rule:evenodd;fill:#261F18;}
	.st6{fill:#261F18;}
</style>
<g>
	<g id="Group-7_1_" transform="translate(-0.000000, 0.000000)">
		<polygon id="Fill-1_3_" class="st0" points="9,36 26.7,36 36.2,23 		"/>
		<polygon id="Fill-2_1_" class="st0" points="33.2,0 16.9,7.1 36.2,23 		"/>
		<polygon id="Fill-3_3_" class="st1" points="11.3,15.4 9,36 36.2,23 16.9,7.1 		"/>
		<polygon id="Fill-4_1_" class="st2" points="0,18.3 9,36 11.3,15.4 		"/>
		<polygon id="Fill-5_3_" class="st3" points="0,18.3 11.3,15.4 16.9,7.1 2.9,5.3 		"/>
		<polygon id="Fill-6_1_" class="st4" points="33.2,0 2.9,5.3 16.9,7.1 		"/>
	</g>
	<g>
		<g>
			<path id="Fill-1_2_" class="st5" d="M53.6,21.6c1.3,0,1.9-0.5,1.9-1.4c0-0.9-0.7-1.5-1.8-1.5h-1.9v2.9H53.6z M53.4,16.8
				c1,0,1.7-0.5,1.7-1.4c0-0.8-0.6-1.3-1.6-1.3h-1.7v2.7H53.4z M48.8,11.7h5.1c2.8,0,4.2,1.3,4.2,3.1c0,1.4-0.9,2.4-2.3,2.7v0.1
				c1.5,0.1,2.8,1.2,2.8,3c0,2-1.6,3.4-4.3,3.4h-5.5V11.7z"/>
			<polygon id="Fill-3_2_" class="st5" points="65.9,11.7 74.5,11.7 74.5,14.1 68.9,14.1 68.9,16.7 74.1,16.7 74.1,19.1 68.9,19.1 
				68.9,21.6 74.5,21.6 74.5,24 65.9,24 			"/>
			<path id="Fill-5_2_" class="st5" d="M86.7,21.5c2.1,0,3.2-1,3.2-3.6c0-2.7-1.1-3.6-3.3-3.6h-1.4v7.2H86.7z M82.3,24V11.7h4.5
				c3.8,0,6.1,2.3,6.1,6.1c0,3.8-2.3,6.2-6.1,6.2H82.3z"/>
			<path id="Fill-7_1_" class="st5" d="M105,17.5c1.3,0,2-0.5,2-1.7s-0.7-1.7-2-1.7h-1.5v3.4H105z M100.6,11.7h5.1
				c2.8,0,4.5,1.6,4.5,4.1c0,1.7-0.8,2.9-2.1,3.5l2.6,4.7h-3.2l-2.2-4.2h-1.5V24h-3V11.7z"/>
			<path id="Fill-9_1_" class="st5" d="M123.5,14.2c-1.8,0-2.8,1.3-2.8,3.7c0,2.4,1.1,3.7,2.8,3.7c1.8,0,2.8-1.3,2.8-3.7
				C126.3,15.5,125.2,14.2,123.5,14.2 M123.5,24.2c-3.3,0-5.9-2.3-5.9-6.3c0-4.1,2.6-6.3,5.9-6.3c3.3,0,5.9,2.3,5.9,6.3
				C129.3,21.9,126.8,24.2,123.5,24.2"/>
			<path id="Fill-11_1_" class="st5" d="M145.2,16.2c-0.2-1.2-1-2-2.4-2c-1.8,0-2.9,1.4-2.9,3.7c0,2.4,1.1,3.7,2.9,3.7
				c1.3,0,2.2-0.7,2.4-1.9l3,0c-0.2,2.2-2.1,4.5-5.5,4.5c-3.3,0-5.8-2.3-5.8-6.3c0-4.1,2.6-6.3,5.8-6.3c3,0,5.2,1.7,5.5,4.6H145.2z"
				/>
			<polygon id="Fill-13_1_" class="st5" points="155.8,11.7 158.8,11.7 158.8,16.9 158.9,16.9 163,11.7 166.5,11.7 162.2,17.2 
				166.6,24 163,24 160,19.2 158.8,20.7 158.8,24 155.8,24 			"/>
		</g>
		<g>
			<path class="st6" d="M173.7,22.6c0-0.9,0.7-1.5,1.6-1.5c0.8,0,1.6,0.7,1.6,1.5c0,0.9-0.7,1.6-1.6,1.6
				C174.4,24.2,173.7,23.5,173.7,22.6z"/>
			<path class="st6" d="M187.7,24h-3V11.7h3V24z"/>
			<path class="st6" d="M201.2,24.2c-3.3,0-5.9-2.3-5.9-6.3c0-4.1,2.6-6.3,5.9-6.3c3.3,0,5.9,2.3,5.9,6.3S204.5,24.2,201.2,24.2z
				 M201.2,14.2c-1.8,0-2.8,1.3-2.8,3.7s1.1,3.7,2.8,3.7c1.8,0,2.8-1.3,2.8-3.7S203,14.2,201.2,14.2z"/>
		</g>
	</g>
</g>
</svg>
