<svg xmlns="http://www.w3.org/2000/svg" viewBox="36.003 68 174.997 38.432">
  <defs>
    <style>
      .cls-1 {
        fill: #f79420;
      }
    </style>
  </defs>
  <g id="Logo" transform="translate(12 -2)">
    <path id="Path_1" data-name="Path 1" class="cls-1" d="M48.367,41.337V36.487A31.147,31.147,0,0,1,44.2,36.3v4.353A14.238,14.238,0,0,0,48.367,41.337Z" transform="translate(7.29 56.274)"/>
    <path id="Path_2" data-name="Path 2" class="cls-1" d="M50.685,36.4v5.41c0,1.244-1.741,2.239-3.856,2.239H39.056c-2.114,0-3.856-1-3.856-2.239V36.4Z" transform="translate(10.693 56.236)"/>
    <path id="Path_3" data-name="Path 3" class="cls-1" d="M42.1,27.5c0-.311-.373-.5-.808-.5H39.608c-.435,0-.808.249-.808.5V38.629c0,.311.373.5.808.5h1.679c.435,0,.808-.249.808-.5Z" transform="translate(9.332 59.791)"/>
    <path id="Path_4" data-name="Path 4" class="cls-1" d="M54.6,27.5c0-.311-.373-.5-.808-.5H52.108c-.435,0-.808.249-.808.5V38.629c0,.311.373.5.808.5h1.679c.435,0,.808-.249.808-.5Z" transform="translate(4.605 59.791)"/>
    <g id="Group_2" data-name="Group 2" transform="translate(24.003 70)">
      <path id="Path_5" data-name="Path 5" class="cls-1" d="M50.186,15.982a15.984,15.984,0,0,0-28.917-9.39,8.868,8.868,0,0,0-3.42-.746A8.175,8.175,0,0,0,9.7,13.992V14.3l.187,1.368-1.866.373A11.677,11.677,0,0,0,0,27.052a11.346,11.346,0,0,0,11.38,11.38H21.828a1.617,1.617,0,1,0,0-3.234H11.443a8.15,8.15,0,0,1-1.057-16.231,3.286,3.286,0,0,0,2.8-3.918,6.127,6.127,0,0,1-.124-1.057,4.964,4.964,0,0,1,4.913-4.913,4.248,4.248,0,0,1,1.99.435,3.29,3.29,0,0,0,3.98-1.057A12.841,12.841,0,0,1,34.266,3.234,12.568,12.568,0,0,1,46.952,15.858a3.249,3.249,0,0,0,2.425,3.109,8.2,8.2,0,0,1-2.114,16.107H34.2a2.919,2.919,0,0,1-2.923-2.923V27.985a11.752,11.752,0,0,1-3.3-.5v4.664A6.237,6.237,0,0,0,34.2,38.37h13.06a11.385,11.385,0,0,0,2.923-22.388Z"/>
      <g id="Group_1" data-name="Group 1" transform="translate(71.703 7.96)">
        <path id="Path_6" data-name="Path 6" class="cls-1" d="M131.22,34.282l.187,3.358c-2.177.187-5.784.311-10.821.311a5.741,5.741,0,0,1-3.856-1.244,4.362,4.362,0,0,1-1.43-3.42V17.864a4.362,4.362,0,0,1,1.43-3.42,5.741,5.741,0,0,1,3.856-1.244c5.037,0,8.644.124,10.821.311l-.187,3.42h-9.639a1.726,1.726,0,0,0-1.368.435,2.647,2.647,0,0,0-.435,1.617v4.291h10.074v3.42H119.778v5.473a2.289,2.289,0,0,0,.435,1.617,1.726,1.726,0,0,0,1.368.435h9.639Z" transform="translate(-115.3 -12.951)"/>
        <path id="Path_7" data-name="Path 7" class="cls-1" d="M158.2,38.947H147.5V35.9h10.7Z" transform="translate(-127.475 -21.535)"/>
        <path id="Path_8" data-name="Path 8" class="cls-1" d="M188.223,16.931H179.33a2.192,2.192,0,0,0-1.617.435,2.29,2.29,0,0,0-.435,1.617V23.71h9.7v3.483h-9.7v10.7H172.8V18.051a4.542,4.542,0,0,1,1.43-3.545,5.464,5.464,0,0,1,3.856-1.306c4.913,0,8.4.124,10.448.311Z" transform="translate(-137.042 -12.951)"/>
        <path id="Path_9" data-name="Path 9" class="cls-1" d="M207.953,12.8V32.265a2.045,2.045,0,0,0,.5,1.555,2.327,2.327,0,0,0,1.555.5H211.5l.5,3.234a9.2,9.2,0,0,1-3.731.622,4.706,4.706,0,0,1-3.42-1.244,4.575,4.575,0,0,1-1.244-3.545V12.8Z" transform="translate(-148.688 -12.8)"/>
        <path id="Path_10" data-name="Path 10" class="cls-1" d="M237.258,24.8V42.275h-3.42l-.311-2.363a12.193,12.193,0,0,1-7.276,2.8q-4.851,0-4.851-4.851V24.8h4.353V36.616a3.037,3.037,0,0,0,.435,1.928,2.16,2.16,0,0,0,1.741.56c1.182,0,2.861-.622,5.1-1.928V24.8Z" transform="translate(-155.418 -17.337)"/>
        <path id="Path_11" data-name="Path 11" class="cls-1" d="M261.09,34.75h-.5l-4.353,7.463H251.7l5.535-8.955-5.1-8.458h4.54l3.98,6.841h.56l3.98-6.841h4.54l-5.1,8.458,5.535,8.955h-4.54Z" transform="translate(-166.875 -17.337)"/>
      </g>
    </g>
  </g>
</svg>
